<svg width="33" height="20" viewBox="0 0 33 20" fill="none" xmlns="http://www.w3.org/2000/svg">
<path d="M32.2784 9.99993C32.2784 15.1999 28.0784 19.4499 22.8284 19.4499C17.6284 19.4499 13.3784 15.1999 13.3784 9.99993C13.3784 4.79993 17.5784 0.549927 22.7784 0.549927C28.0784 0.549927 32.2784 4.79993 32.2784 9.99993Z" fill="#FFB600"/>
<path d="M22.8284 0.549927C28.0284 0.549927 32.2784 4.79993 32.2784 9.99993C32.2784 15.1999 28.0784 19.4499 22.8284 19.4499C17.6284 19.4499 13.3784 15.1999 13.3784 9.99993" fill="#F7981D"/>
<path d="M22.8296 0.549927C28.0296 0.549927 32.2796 4.79993 32.2796 9.99993C32.2796 15.1999 28.0796 19.4499 22.8296 19.4499" fill="#FF8500"/>
<path d="M10.1288 0.550049C4.97881 0.600049 0.778809 4.80005 0.778809 10.0001C0.778809 15.2001 4.97881 19.4501 10.2288 19.4501C12.6788 19.4501 14.8788 18.5001 16.5788 17.0001C16.9288 16.7001 17.2288 16.3501 17.5288 16.0001H15.5788C15.3288 15.7001 15.0788 15.3501 14.8788 15.0501H18.2288C18.4288 14.7501 18.6288 14.4001 18.7788 14.0501H14.3288C14.1788 13.7501 14.0288 13.4001 13.9288 13.0501H19.1288C19.4288 12.1001 19.6288 11.1 19.6288 10.05C19.6288 9.35005 19.5288 8.70005 19.4288 8.05005H13.6288C13.6788 7.70005 13.7788 7.40005 13.8788 7.05005H19.0788C18.9788 6.70005 18.8288 6.35005 18.6788 6.05005H14.2788C14.4288 5.70005 14.6288 5.40005 14.8288 5.05005H18.1788C17.9788 4.70005 17.7288 4.35005 17.4288 4.05005H15.5788C15.8788 3.70005 16.1788 3.40005 16.5288 3.10005C14.8788 1.55005 12.6288 0.650049 10.1788 0.650049C10.1788 0.550049 10.1788 0.550049 10.1288 0.550049Z" fill="#FF5050"/>
<path d="M0.778076 10C0.778076 15.2 4.97807 19.45 10.2281 19.45C12.6781 19.45 14.8781 18.5 16.5781 17C16.9281 16.7 17.2281 16.35 17.5281 16H15.5781C15.3281 15.7 15.0781 15.35 14.8781 15.05H18.2281C18.4281 14.75 18.6281 14.4 18.7781 14.05H14.3281C14.1781 13.75 14.0281 13.4 13.9281 13.05H19.1281C19.4281 12.1 19.6281 11.1 19.6281 10.05C19.6281 9.35003 19.5281 8.70003 19.4281 8.05003H13.6281C13.6781 7.70003 13.7781 7.40003 13.8781 7.05003H19.0781C18.9781 6.70003 18.8281 6.35003 18.6781 6.05002H14.2781C14.4281 5.70003 14.6281 5.40002 14.8281 5.05002H18.1781C17.9781 4.70003 17.7281 4.35002 17.4281 4.05002H15.5781C15.8781 3.70002 16.1781 3.40003 16.5281 3.10002C14.8781 1.55002 12.6281 0.650024 10.1781 0.650024H10.1281" fill="#E52836"/>
<path d="M10.2284 19.45C12.6784 19.45 14.8784 18.5 16.5784 17C16.9284 16.7 17.2284 16.35 17.5284 16H15.5784C15.3284 15.7 15.0784 15.35 14.8784 15.05H18.2284C18.4284 14.75 18.6284 14.4 18.7784 14.05H14.3284C14.1784 13.75 14.0284 13.4 13.9284 13.05H19.1284C19.4284 12.1 19.6284 11.1 19.6284 10.05C19.6284 9.35003 19.5284 8.70003 19.4284 8.05003H13.6284C13.6784 7.70003 13.7784 7.40003 13.8784 7.05003H19.0784C18.9784 6.70003 18.8284 6.35003 18.6784 6.05002H14.2784C14.4284 5.70003 14.6284 5.40002 14.8284 5.05002H18.1784C17.9784 4.70003 17.7284 4.35002 17.4284 4.05002H15.5784C15.8784 3.70002 16.1784 3.40003 16.5284 3.10002C14.8784 1.55002 12.6284 0.650024 10.1784 0.650024H10.1284" fill="#CB2026"/>
<path d="M13.5792 12.4L13.7291 11.55C13.6791 11.55 13.5791 11.6 13.4791 11.6C13.1291 11.6 13.0792 11.4 13.1292 11.3L13.4291 9.55H13.9791L14.1292 8.6H13.6292L13.7291 8H12.7291C12.7291 8 12.1292 11.3 12.1292 11.7C12.1292 12.3 12.4791 12.55 12.9291 12.55C13.2291 12.55 13.4792 12.45 13.5792 12.4Z" fill="white"/>
<path d="M13.9292 10.7999C13.9292 12.1999 14.8792 12.5499 15.6792 12.5499C16.4292 12.5499 16.7292 12.3999 16.7292 12.3999L16.9292 11.4499C16.9292 11.4499 16.3792 11.6999 15.8792 11.6999C14.7792 11.6999 14.9792 10.8999 14.9792 10.8999H17.0292C17.0292 10.8999 17.1792 10.2499 17.1792 9.99991C17.1792 9.34991 16.8292 8.54991 15.7292 8.54991C14.6792 8.44991 13.9292 9.54991 13.9292 10.7999ZM15.6792 9.34991C16.2292 9.34991 16.1292 9.99991 16.1292 10.0499H15.0292C15.0292 9.99991 15.1292 9.34991 15.6792 9.34991Z" fill="white"/>
<path d="M22.0291 12.3999L22.2291 11.2999C22.2291 11.2999 21.7291 11.5499 21.3791 11.5499C20.6791 11.5499 20.3791 10.9999 20.3791 10.3999C20.3791 9.19993 20.9791 8.54993 21.6791 8.54993C22.1791 8.54993 22.5791 8.84993 22.5791 8.84993L22.7291 7.79993C22.7291 7.79993 22.1291 7.54993 21.5791 7.54993C20.4291 7.54993 19.2791 8.54993 19.2791 10.4499C19.2791 11.6999 19.8791 12.5499 21.0791 12.5499C21.4791 12.5499 22.0291 12.3999 22.0291 12.3999Z" fill="white"/>
<path d="M8.0792 8.45007C7.3792 8.45007 6.8792 8.65007 6.8792 8.65007L6.7292 9.50007C6.7292 9.50007 7.1792 9.30007 7.8292 9.30007C8.1792 9.30007 8.4792 9.35007 8.4792 9.65007C8.4792 9.85007 8.4292 9.90007 8.4292 9.90007C8.4292 9.90007 8.1292 9.90007 7.9792 9.90007C7.1292 9.90007 6.1792 10.2501 6.1792 11.4001C6.1792 12.3001 6.7792 12.5001 7.1292 12.5001C7.8292 12.5001 8.1292 12.0501 8.1792 12.0501L8.1292 12.4501H9.0292L9.4292 9.70007C9.4292 8.50007 8.4292 8.45007 8.0792 8.45007ZM8.2792 10.7001C8.2792 10.8501 8.1792 11.6501 7.5792 11.6501C7.2792 11.6501 7.1792 11.4001 7.1792 11.2501C7.1792 11.0001 7.3292 10.6501 8.0792 10.6501C8.2292 10.7001 8.2792 10.7001 8.2792 10.7001Z" fill="white"/>
<path d="M10.3795 12.4999C10.6295 12.4999 11.8795 12.5499 11.8795 11.1999C11.8795 9.9499 10.6795 10.1999 10.6795 9.6999C10.6795 9.4499 10.8795 9.3499 11.2295 9.3499C11.3795 9.3499 11.9295 9.3999 11.9295 9.3999L12.0795 8.4999C12.0795 8.4999 11.7295 8.3999 11.1295 8.3999C10.3795 8.3999 9.62949 8.6999 9.62949 9.6999C9.62949 10.8499 10.8795 10.7499 10.8795 11.1999C10.8795 11.4999 10.5295 11.5499 10.2795 11.5499C9.82949 11.5499 9.37949 11.3999 9.37949 11.3999L9.22949 12.2999C9.27949 12.3999 9.52949 12.4999 10.3795 12.4999Z" fill="white"/>
<path d="M30.3295 7.6499L30.1295 8.9999C30.1295 8.9999 29.7295 8.4999 29.1795 8.4999C28.2795 8.4999 27.4795 9.5999 27.4795 10.8999C27.4795 11.6999 27.8795 12.5499 28.7295 12.5499C29.3295 12.5499 29.6795 12.1499 29.6795 12.1499L29.6295 12.4999H30.6295L31.3795 7.6999L30.3295 7.6499ZM29.8795 10.2999C29.8795 10.8499 29.6295 11.5499 29.0795 11.5499C28.7295 11.5499 28.5295 11.2499 28.5295 10.7499C28.5295 9.9499 28.8795 9.4499 29.3295 9.4499C29.6795 9.4499 29.8795 9.6999 29.8795 10.2999Z" fill="white"/>
<path d="M2.6292 12.4499L3.2292 8.8499L3.3292 12.4499H4.0292L5.3292 8.8499L4.7792 12.4499H5.8292L6.6292 7.6499H4.9792L3.9792 10.5999L3.9292 7.6499H2.4792L1.6792 12.4499H2.6292Z" fill="white"/>
<path d="M18.1291 12.4499C18.4291 10.7999 18.4791 9.44993 19.1791 9.69993C19.2791 9.04993 19.4291 8.79993 19.5291 8.54993C19.5291 8.54993 19.4791 8.54993 19.3291 8.54993C18.8791 8.54993 18.5291 9.14993 18.5291 9.14993L18.6291 8.59993H17.6791L17.0291 12.4999H18.1291V12.4499Z" fill="white"/>
<path d="M24.3292 8.45007C23.6292 8.45007 23.1292 8.65007 23.1292 8.65007L22.9792 9.50007C22.9792 9.50007 23.4292 9.30007 24.0792 9.30007C24.4292 9.30007 24.7292 9.35007 24.7292 9.65007C24.7292 9.85007 24.6792 9.90007 24.6792 9.90007C24.6792 9.90007 24.3792 9.90007 24.2292 9.90007C23.3792 9.90007 22.4292 10.2501 22.4292 11.4001C22.4292 12.3001 23.0292 12.5001 23.3792 12.5001C24.0792 12.5001 24.3792 12.0501 24.4292 12.0501L24.3792 12.4501H25.2792L25.6792 9.70007C25.7292 8.50007 24.6792 8.45007 24.3292 8.45007ZM24.5792 10.7001C24.5792 10.8501 24.4792 11.6501 23.8792 11.6501C23.5792 11.6501 23.4792 11.4001 23.4792 11.2501C23.4792 11.0001 23.6292 10.6501 24.3792 10.6501C24.5292 10.7001 24.5292 10.7001 24.5792 10.7001Z" fill="white"/>
<path d="M26.529 12.4498C26.829 10.7998 26.879 9.4498 27.579 9.6998C27.679 9.0498 27.829 8.7998 27.929 8.5498C27.929 8.5498 27.879 8.5498 27.729 8.5498C27.279 8.5498 26.929 9.1498 26.929 9.1498L27.029 8.5998H26.079L25.429 12.4998H26.529V12.4498Z" fill="white"/>
<path d="M12.0291 11.7C12.0291 12.3 12.3791 12.55 12.8291 12.55C13.1791 12.55 13.4791 12.45 13.5791 12.4L13.7291 11.55C13.6791 11.55 13.5791 11.6 13.4791 11.6C13.1291 11.6 13.0791 11.4 13.1291 11.3L13.4291 9.55H13.9791L14.1291 8.6H13.6291L13.7291 8" fill="#DCE5E5"/>
<path d="M14.4292 10.7999C14.4292 12.1999 14.8792 12.5499 15.6792 12.5499C16.4292 12.5499 16.7292 12.3999 16.7292 12.3999L16.9292 11.4499C16.9292 11.4499 16.3792 11.6999 15.8792 11.6999C14.7792 11.6999 14.9792 10.8999 14.9792 10.8999H17.0292C17.0292 10.8999 17.1792 10.2499 17.1792 9.99991C17.1792 9.34991 16.8292 8.54991 15.7292 8.54991C14.6792 8.44991 14.4292 9.54991 14.4292 10.7999ZM15.6792 9.34991C16.2292 9.34991 16.3292 9.99991 16.3292 10.0499H15.0292C15.0292 9.99991 15.1292 9.34991 15.6792 9.34991Z" fill="#DCE5E5"/>
<path d="M22.0291 12.3999L22.2291 11.2999C22.2291 11.2999 21.7291 11.5499 21.3791 11.5499C20.6791 11.5499 20.3791 10.9999 20.3791 10.3999C20.3791 9.19993 20.9791 8.54993 21.6791 8.54993C22.1791 8.54993 22.5791 8.84993 22.5791 8.84993L22.7291 7.79993C22.7291 7.79993 22.1291 7.54993 21.5791 7.54993C20.4291 7.54993 19.7791 8.54993 19.7791 10.4499C19.7791 11.6999 19.8791 12.5499 21.0791 12.5499C21.4791 12.5499 22.0291 12.3999 22.0291 12.3999Z" fill="#DCE5E5"/>
<path d="M6.7292 9.54993C6.7292 9.54993 7.1792 9.34993 7.8292 9.34993C8.1792 9.34993 8.4792 9.39993 8.4792 9.69993C8.4792 9.89993 8.4292 9.94993 8.4292 9.94993C8.4292 9.94993 8.1292 9.94993 7.9792 9.94993C7.1292 9.94993 6.1792 10.2999 6.1792 11.4499C6.1792 12.3499 6.7792 12.5499 7.1292 12.5499C7.8292 12.5499 8.1292 12.0999 8.1792 12.0999L8.1292 12.4999H9.0292L9.4292 9.74993C9.4292 8.59993 8.4292 8.54993 8.0292 8.54993M8.7792 10.6999C8.7792 10.8499 8.1792 11.6499 7.5792 11.6499C7.2792 11.6499 7.1792 11.3999 7.1792 11.2499C7.1792 10.9999 7.3292 10.6499 8.0792 10.6499C8.2292 10.6999 8.7792 10.6999 8.7792 10.6999Z" fill="#DCE5E5"/>
<path d="M9.27905 12.3999C9.27905 12.3999 9.57905 12.4999 10.4291 12.4999C10.6791 12.4999 11.9291 12.5499 11.9291 11.1999C11.9291 9.9499 10.7291 10.1999 10.7291 9.6999C10.7291 9.4499 10.9291 9.3499 11.2791 9.3499C11.4291 9.3499 11.9791 9.3999 11.9791 9.3999L12.1291 8.4999C12.1291 8.4999 11.7791 8.3999 11.1791 8.3999C10.4291 8.3999 10.1791 8.6999 10.1791 9.6999C10.1791 10.8499 10.9291 10.7499 10.9291 11.1999C10.9291 11.4999 10.5791 11.5499 10.3291 11.5499" fill="#DCE5E5"/>
<path d="M30.1295 9.00007C30.1295 9.00007 29.7295 8.50007 29.1795 8.50007C28.2795 8.50007 27.9795 9.60007 27.9795 10.9001C27.9795 11.7001 27.8795 12.5501 28.7295 12.5501C29.3295 12.5501 29.6795 12.1501 29.6795 12.1501L29.6295 12.5001H30.6295L31.3795 7.70007M30.0795 10.3001C30.0795 10.8501 29.6295 11.5501 29.0795 11.5501C28.7295 11.5501 28.5295 11.2501 28.5295 10.7501C28.5295 9.95007 28.8795 9.45007 29.3295 9.45007C29.6795 9.45007 30.0795 9.70007 30.0795 10.3001Z" fill="#DCE5E5"/>
<path d="M2.6292 12.4499L3.2292 8.8499L3.3292 12.4499H4.0292L5.3292 8.8499L4.7792 12.4499H5.8292L6.6292 7.6499H5.3792L3.9792 10.5999L3.9292 7.6499H3.3792L1.6792 12.4499H2.6292Z" fill="#DCE5E5"/>
<path d="M17.0793 12.4502H18.1293C18.4293 10.8002 18.4793 9.45017 19.1793 9.70017C19.2793 9.05017 19.4293 8.80017 19.5293 8.55017C19.5293 8.55017 19.4793 8.55017 19.3293 8.55017C18.8793 8.55017 18.5293 9.15017 18.5293 9.15017L18.6293 8.60017" fill="#DCE5E5"/>
<path d="M22.9792 9.54993C22.9792 9.54993 23.4292 9.34993 24.0792 9.34993C24.4292 9.34993 24.7292 9.39993 24.7292 9.69993C24.7292 9.89993 24.6792 9.94993 24.6792 9.94993C24.6792 9.94993 24.3792 9.94993 24.2292 9.94993C23.3792 9.94993 22.4292 10.2999 22.4292 11.4499C22.4292 12.3499 23.0292 12.5499 23.3792 12.5499C24.0792 12.5499 24.3792 12.0999 24.4292 12.0999L24.3792 12.4999H25.2792L25.6792 9.74993C25.6792 8.59993 24.6792 8.54993 24.2792 8.54993M25.0292 10.6999C25.0292 10.8499 24.4292 11.6499 23.8292 11.6499C23.5292 11.6499 23.4292 11.3999 23.4292 11.2499C23.4292 10.9999 23.5792 10.6499 24.3292 10.6499C24.5292 10.6999 25.0292 10.6999 25.0292 10.6999Z" fill="#DCE5E5"/>
<path d="M25.4795 12.4502H26.5295C26.8295 10.8002 26.8795 9.45017 27.5795 9.70017C27.6795 9.05017 27.8295 8.80017 27.9295 8.55017C27.9295 8.55017 27.8795 8.55017 27.7295 8.55017C27.2795 8.55017 26.9295 9.15017 26.9295 9.15017L27.0295 8.60017" fill="#DCE5E5"/>
</svg>
