<svg width="160" height="26" viewBox="0 0 160 26" fill="none" xmlns="http://www.w3.org/2000/svg">
<g clip-path="url(#clip0_363_923)">
<path fill-rule="evenodd" clip-rule="evenodd" d="M54.136 8.29907H49.8653V20.2186H46.9974V8.29907H42.7061V5.78284H54.136V8.29907Z" fill="white"/>
<path fill-rule="evenodd" clip-rule="evenodd" d="M55.9399 5.78284H58.9469V20.218H55.9399V5.78284Z" fill="white"/>
<path fill-rule="evenodd" clip-rule="evenodd" d="M70.9789 19.3379C70.5392 19.6519 69.9792 19.8775 69.2989 20.0142C68.6192 20.1503 67.9208 20.2183 67.2068 20.2183C66.3413 20.2183 65.519 20.0843 64.7437 19.816C63.9671 19.5472 63.2832 19.1135 62.692 18.515C62.1007 17.9158 61.6303 17.138 61.2796 16.181C60.9295 15.2234 60.7539 14.0636 60.7539 12.7004C60.7539 11.2829 60.95 10.095 61.341 9.13731C61.7332 8.18092 62.2414 7.40973 62.867 6.82426C63.492 6.23881 64.1891 5.8195 64.959 5.56439C65.7289 5.30928 66.4977 5.18237 67.2682 5.18237C68.0929 5.18237 68.79 5.23732 69.3608 5.34722C69.9304 5.45711 70.402 5.58859 70.7726 5.7397L70.2156 8.13581C69.8998 7.98471 69.5244 7.87481 69.092 7.80546C68.6595 7.73677 68.1332 7.70212 67.5148 7.70212C66.3738 7.70212 65.4565 8.10964 64.7623 8.92335C64.0688 9.73779 63.7211 11.0003 63.7211 12.7115C63.7211 13.4565 63.8041 14.1362 63.9689 14.7504C64.1338 15.364 64.3846 15.8886 64.7214 16.3237C65.0577 16.758 65.4769 17.0968 65.9786 17.3376C66.4802 17.5789 67.0607 17.7 67.7205 17.7C68.3389 17.7 68.861 17.6378 69.2874 17.5142C69.7133 17.3905 70.0844 17.2322 70.4002 17.0393L70.9789 19.3379Z" fill="white"/>
<path fill-rule="evenodd" clip-rule="evenodd" d="M76.9841 14.0519H76.2347V20.218H73.3823V5.78284H76.2347V12.1756L76.9011 11.887L80.9198 5.78284H84.1679L79.9201 11.8458L78.7965 12.6295L79.9628 13.4334L84.8133 20.2186H81.2951L76.9841 14.0519Z" fill="white"/>
<path fill-rule="evenodd" clip-rule="evenodd" d="M86.6147 5.78284H95.532V8.29907H89.5585V11.6603H94.9955V14.1759H89.5585V17.7024H95.6403V20.2186H86.6147V5.78284Z" fill="white"/>
<path fill-rule="evenodd" clip-rule="evenodd" d="M108.27 8.29907H104.001V20.2186H101.135V8.29907H96.844V5.78284H108.27V8.29907Z" fill="white"/>
<path fill-rule="evenodd" clip-rule="evenodd" d="M109.474 5.78284H117.294V7.30905H111.177V12.2377H116.884V13.7638H111.177V20.2186H109.474V5.78284Z" fill="white"/>
<path fill-rule="evenodd" clip-rule="evenodd" d="M122.106 14.2012H126.316L124.722 9.78366L124.211 7.58576H124.191L123.681 9.8257L122.106 14.2012ZM127.15 16.1149H121.722L120.25 20.2186H118.495L124.098 5.18091H124.902L130.526 20.2186H128.665L127.15 16.1149Z" fill="white"/>
<path fill-rule="evenodd" clip-rule="evenodd" d="M132.333 5.78284H134.136V20.218H132.333V5.78284Z" fill="white"/>
<path fill-rule="evenodd" clip-rule="evenodd" d="M141.519 6.98528C141.344 6.98528 141.16 6.98528 140.971 6.98528C140.781 6.98528 140.598 6.99244 140.422 7.00603C140.246 7.01969 140.081 7.03334 139.925 7.047C139.77 7.06059 139.644 7.0814 139.549 7.10865V12.3997H141.133C142.067 12.3997 142.838 12.1678 143.448 11.7022C144.057 11.2379 144.362 10.5124 144.362 9.5285C144.362 8.79009 144.111 8.18221 143.61 7.70293C143.11 7.22492 142.413 6.98528 141.519 6.98528ZM137.746 5.49974C138.264 5.40086 138.861 5.32284 139.534 5.26566C140.208 5.20916 140.825 5.18091 141.383 5.18091C142.01 5.18091 142.606 5.25153 143.17 5.39346C143.735 5.53471 144.234 5.76878 144.663 6.09433C145.092 6.42055 145.435 6.84497 145.694 7.36892C145.953 7.89289 146.083 8.52988 146.083 9.2805C146.083 10.4415 145.776 11.3831 145.163 12.1055C144.551 12.8279 143.774 13.3095 142.834 13.5496L143.815 14.336L147.37 20.2193H145.389L141.445 13.8046L139.443 13.4857V20.2193H137.747L137.746 5.49974Z" fill="white"/>
<path fill-rule="evenodd" clip-rule="evenodd" d="M152.833 14.4854L147.97 5.78345H150.011L153.465 12.0939L153.829 13.3517H153.85L154.236 12.0528L157.548 5.78345H159.4L154.58 14.4652V20.2193H152.833V14.4854Z" fill="white"/>
<path fill-rule="evenodd" clip-rule="evenodd" d="M27.7816 10.6174C25.5427 12.7172 19.2485 14.2018 19.2485 14.2018C19.2485 14.2018 20.4455 10.879 22.7155 8.84979C25.0565 6.75788 30.677 5.18196 30.677 5.18196C30.677 5.18196 30.0928 8.44991 27.7816 10.6174ZM22.5711 18.6508C20.3509 17.2668 18.6475 14.8046 18.6475 14.8046C18.6475 14.8046 23.7676 15.4519 25.9627 16.8819C28.2231 18.3547 29.4749 20.8207 29.4749 20.8207C29.4749 20.8207 24.8559 20.0756 22.5711 18.6508ZM14.8647 18.1265C12.8256 19.1239 9.02286 19.0129 9.02286 19.0129C9.02286 19.0129 10.0131 16.9235 11.8749 15.8563C13.7879 14.7603 18.6475 14.8046 18.6475 14.8046C18.6475 14.8046 16.9596 17.1015 14.8647 18.1265ZM14.8395 8.69412C16.906 10.7943 18.0446 14.2035 18.0446 14.2035C18.0446 14.2035 12.4337 12.1696 10.6185 10.0814C8.85251 8.05081 8.42069 5.18019 8.42069 5.18019C8.42069 5.18019 12.8307 6.6536 14.8395 8.69412ZM38.4977 10.9804V5.53621C38.4977 3.01495 36.432 0.969971 33.8851 0.969971H4.61272C2.06513 0.969971 0 3.01495 0 5.53621V10.9824C0.0293214 10.9818 0.0593082 10.9804 0.0886298 10.9804C1.36275 10.9804 2.39499 12.0029 2.39499 13.2636C2.39499 14.5242 1.36275 15.5467 0.0886298 15.5467C0.0593082 15.5467 0.0293214 15.5454 0 15.544V20.4639C0 22.9858 2.06512 25.0301 4.61272 25.0301H33.8851C36.4327 25.0301 38.4977 22.9858 38.4977 20.4639V15.5467C37.2236 15.5467 36.1914 14.5242 36.1914 13.2636C36.1914 12.0029 37.2236 10.9804 38.4977 10.9804Z" fill="white"/>
</g>
<defs>
<clipPath id="clip0_363_923">
<rect width="160" height="24.0602" fill="white" transform="translate(0 0.969971)"/>
</clipPath>
</defs>
</svg>
