<svg width="22" height="22" viewBox="0 0 22 22" fill="none" xmlns="http://www.w3.org/2000/svg">
<path d="M21.1332 10.558C13.8383 9.15801 12.8422 8.16187 11.4421 0.866956C11.4224 0.764208 11.3674 0.671552 11.2868 0.604917C11.2061 0.538282 11.1047 0.501831 11.0001 0.501831C10.8955 0.501831 10.7941 0.538282 10.7135 0.604917C10.6328 0.671552 10.5779 0.764208 10.5581 0.866956C9.15844 8.16187 8.16235 9.15801 0.867065 10.558C0.76432 10.5777 0.671667 10.6327 0.605035 10.7134C0.538402 10.794 0.501953 10.8954 0.501953 11C0.501953 11.1046 0.538402 11.206 0.605035 11.2867C0.671667 11.3673 0.76432 11.4223 0.867065 11.442C8.16235 12.842 9.15844 13.8381 10.5581 21.1331C10.578 21.2357 10.6329 21.3283 10.7136 21.3948C10.7942 21.4614 10.8955 21.4978 11.0001 21.4978C11.1047 21.4978 11.206 21.4614 11.2867 21.3948C11.3673 21.3283 11.4223 21.2357 11.4421 21.1331C12.8422 13.8381 13.8383 12.842 21.1332 11.442C21.2359 11.4223 21.3286 11.3673 21.3952 11.2867C21.4618 11.206 21.4983 11.1046 21.4983 11C21.4983 10.8954 21.4618 10.794 21.3952 10.7134C21.3286 10.6327 21.2359 10.5777 21.1332 10.558Z" fill="#FF3A3C"/>
</svg>
