<svg width="33" height="10" viewBox="0 0 33 10" fill="none" xmlns="http://www.w3.org/2000/svg">
<path d="M12.3291 9.50012L13.9291 0.500122H16.4291L14.8791 9.50012H12.3291Z" fill="#3C58BF"/>
<path d="M12.3291 9.50012L14.3791 0.500122H16.4291L14.8791 9.50012H12.3291Z" fill="#293688"/>
<path d="M23.9283 0.600196C23.4283 0.400196 22.6283 0.200195 21.6283 0.200195C19.1283 0.200195 17.3283 1.4502 17.3283 3.2502C17.3283 4.6002 18.5783 5.3002 19.5783 5.7502C20.5783 6.2002 20.8783 6.5002 20.8783 6.9002C20.8783 7.5002 20.0783 7.8002 19.3783 7.8002C18.3783 7.8002 17.8283 7.6502 16.9783 7.3002L16.6283 7.1502L16.2783 9.2002C16.8783 9.4502 17.9783 9.7002 19.1283 9.7002C21.7783 9.7002 23.5283 8.4502 23.5283 6.5502C23.5283 5.5002 22.8783 4.7002 21.3783 4.0502C20.4783 3.6002 19.9283 3.3502 19.9283 2.9002C19.9283 2.5002 20.3783 2.1002 21.3783 2.1002C22.2283 2.1002 22.8283 2.2502 23.2783 2.4502L23.5283 2.5502L23.9283 0.600196Z" fill="#3C58BF"/>
<path d="M23.9283 0.600196C23.4283 0.400196 22.6283 0.200195 21.6283 0.200195C19.1283 0.200195 17.7783 1.4502 17.7783 3.2502C17.7783 4.6002 18.5783 5.3002 19.5783 5.7502C20.5783 6.2002 20.8783 6.5002 20.8783 6.9002C20.8783 7.5002 20.0783 7.8002 19.3783 7.8002C18.3783 7.8002 17.8283 7.6502 16.9783 7.3002L16.6283 7.1502L16.2783 9.2002C16.8783 9.4502 17.9783 9.7002 19.1283 9.7002C21.7783 9.7002 23.5283 8.4502 23.5283 6.5502C23.5283 5.5002 22.8783 4.7002 21.3783 4.0502C20.4783 3.6002 19.9283 3.3502 19.9283 2.9002C19.9283 2.5002 20.3783 2.1002 21.3783 2.1002C22.2283 2.1002 22.8283 2.2502 23.2783 2.4502L23.5283 2.5502L23.9283 0.600196Z" fill="#293688"/>
<path d="M28.229 0.500122C27.629 0.500122 27.179 0.550122 26.929 1.15012L23.179 9.50012H25.879L26.379 8.00012H29.579L29.879 9.50012H32.279L30.179 0.500122H28.229ZM27.079 6.50012C27.229 6.05012 28.079 3.85012 28.079 3.85012C28.079 3.85012 28.279 3.30012 28.429 2.95012L28.579 3.80012C28.579 3.80012 29.079 6.05012 29.179 6.55012H27.079V6.50012Z" fill="#3C58BF"/>
<path d="M28.829 0.500122C28.229 0.500122 27.779 0.550122 27.529 1.15012L23.179 9.50012H25.879L26.379 8.00012H29.579L29.879 9.50012H32.279L30.179 0.500122H28.829ZM27.079 6.50012C27.279 6.00012 28.079 3.85012 28.079 3.85012C28.079 3.85012 28.279 3.30012 28.429 2.95012L28.579 3.80012C28.579 3.80012 29.079 6.05012 29.179 6.55012H27.079V6.50012Z" fill="#293688"/>
<path d="M7.72876 6.80017L7.47876 5.50017C7.02876 4.00017 5.57876 2.35017 3.97876 1.55017L6.22876 9.55017H8.92876L12.9788 0.550171H10.2788L7.72876 6.80017Z" fill="#3C58BF"/>
<path d="M7.72876 6.80017L7.47876 5.50017C7.02876 4.00017 5.57876 2.35017 3.97876 1.55017L6.22876 9.55017H8.92876L12.9788 0.550171H10.7788L7.72876 6.80017Z" fill="#293688"/>
<path d="M0.77832 0.500122L1.22832 0.600122C4.42832 1.35012 6.62832 3.25012 7.47832 5.50012L6.57832 1.25012C6.42832 0.650122 5.97832 0.500122 5.42832 0.500122H0.77832Z" fill="#FFBC00"/>
<path d="M0.77832 0.500122C3.97832 1.25012 6.62832 3.20012 7.47832 5.45012L6.62832 1.90012C6.47832 1.30012 5.97832 0.950122 5.42832 0.950122L0.77832 0.500122Z" fill="#F7981D"/>
<path d="M0.77832 0.500122C3.97832 1.25012 6.62832 3.20012 7.47832 5.45012L6.87832 3.50012C6.72832 2.90012 6.52832 2.30012 5.82832 2.05012L0.77832 0.500122Z" fill="#ED7C00"/>
<path d="M10.2283 6.50012L8.52832 4.80012L7.72832 6.70012L7.52832 5.45012C7.07832 3.95012 5.62832 2.30012 4.02832 1.50012L6.27832 9.50012H8.97832L10.2283 6.50012Z" fill="#051244"/>
<path d="M14.8791 9.50017L12.7291 7.30017L12.3291 9.50017H14.8791Z" fill="#051244"/>
<path d="M20.6283 6.40015C20.8283 6.60015 20.9283 6.75015 20.8783 6.95015C20.8783 7.55015 20.0783 7.85015 19.3783 7.85015C18.3783 7.85015 17.8283 7.70015 16.9783 7.35015L16.6283 7.20015L16.2783 9.25015C16.8783 9.50015 17.9783 9.75015 19.1283 9.75015C20.7283 9.75015 22.0283 9.30015 22.7783 8.50015L20.6283 6.40015Z" fill="#051244"/>
<path d="M23.5283 9.50019H25.8783L26.3783 8.0002H29.5783L29.8783 9.50019H32.2783L31.4283 5.8502L28.4283 2.9502L28.5783 3.7502C28.5783 3.7502 29.0783 6.0002 29.1783 6.5002H27.0783C27.2783 6.0002 28.0783 3.8502 28.0783 3.8502C28.0783 3.8502 28.2783 3.3002 28.4283 2.9502" fill="#051244"/>
</svg>
